<?xml version="1.0" encoding="UTF-8"?>
<!-- Generated by jsxcad -->
<!DOCTYPE svg PUBLIC "-//W3C//DTD SVG 1.1 Tiny//EN" "http://www.w3.org/Graphics/SVG/1.1/DTD/svg11-tiny.dtd">
<svg viewBox="-250 -250 500 500" width="500" height="500" xmlns="http://www.w3.org/2000/svg"><path d="M-152.67958587981857,-39.699824662404666L-160.96104113619933,77.854725814796L-129.60133263226072,-68.29232818155737zM-129.60133263226072,-68.29232818155737L-137.5904266228804,98.93746078129699L-100.76491605700328,-93.81223571791615zM-168.5870268636885,-9.21853610450366L-173.7018574565223,51.40207056076802L-152.67958587981857,-39.699824662404666zM-100.76491605700328,-93.81223571791615L-104.31523912361813,112.55155892615421L-67.60284115803981,-115.27313809058963zM-67.60284115803981,-115.27313809058963L-62.963714960818024,116.9534534150318L-31.5653214300833,-131.8355701169186zM-173.7018574565223,51.40207056076802L-168.5870268636885,-9.21853610450366L-175.98086152312112,21.719371508441228zM-31.5653214300833,-131.8355701169186L-16.50155676153102,111.12558269890064L5.850635155423877,-142.77043104903373zM-152.67958587981857,-39.699824662404666L-173.7018574565223,51.40207056076802L-160.96104113619933,77.854725814796zM5.850635155423877,-142.77043104903373L31.203031166455986,95.09728915821803L43.05648700727879,-147.44577253275526z" style="fill:rgb(83,212,212)"/><path d="M153.03538837356874,-96.36486934134534L180.99640811611792,-7.345856783152853L173.03582860675763,-36.946566950981264z" style="fill:rgb(247,163,152)"/><path d="M43.05648700727879,-147.44577253275526L75.89272921450281,70.08520914102346L78.32758249792495,-145.34438318052568zM-129.60133263226072,-68.29232818155737L-160.96104113619933,77.854725814796L-137.5904266228804,98.93746078129699z" style="fill:rgb(83,212,212)"/><path d="M-100.92831816746536,150.2366536983641L-160.96104113619933,77.854725814796L-124.13968144697328,128.7630035945044z" style="fill:rgb(35,46,161)"/><path d="M78.32758249792495,-145.34438318052568L113.5962743718087,38.36610856649076L109.7776385722372,-136.11878726641305zM-100.76491605700328,-93.81223571791615L-137.5904266228804,98.93746078129699L-104.31523912361813,112.55155892615421zM109.7776385722372,-136.11878726641305L141.25754334421052,2.8993436513105397L135.37594232884987,-119.68699532132793z" style="fill:rgb(83,212,212)"/><path d="M180.99640811611792,-7.345856783152853L153.03538837356874,-96.36486934134534L160.7972701059989,-67.0159075682495z" style="fill:rgb(247,163,152)"/><path d="M135.37594232884987,-119.68699532132793L157.12218771931083,-33.17753836114527L153.03538837356874,-96.36486934134534z" style="fill:rgb(83,212,212)"/><path d="M-160.96104113619933,77.854725814796L-100.92831816746536,150.2366536983641L-137.5904266228804,98.93746078129699z" style="fill:rgb(35,46,161)"/><path d="M-67.60284115803981,-115.27313809058963L-104.31523912361813,112.55155892615421L-62.963714960818024,116.9534534150318z" style="fill:rgb(83,212,212)"/><path d="M180.99640811611792,-7.345856783152853L157.12218771931083,-33.17753836114527L178.10157095375496,26.322929308631977z" style="fill:rgb(245,140,174)"/><path d="M-68.51813120183516,164.4821125854094L-137.5904266228804,98.93746078129699L-100.92831816746536,150.2366536983641z" style="fill:rgb(57,36,182)"/><path d="M157.12218771931083,-33.17753836114527L180.99640811611792,-7.345856783152853L160.7972701059989,-67.0159075682495z" style="fill:rgb(245,140,174)"/><path d="M-31.5653214300833,-131.8355701169186L-62.963714960818024,116.9534534150318L-16.50155676153102,111.12558269890064zM153.03538837356874,-96.36486934134534L157.12218771931083,-33.17753836114527L160.7972701059989,-67.0159075682495zM135.37594232884987,-119.68699532132793L141.25754334421052,2.8993436513105397L157.12218771931083,-33.17753836114527zM5.850635155423877,-142.77043104903373L-16.50155676153102,111.12558269890064L31.203031166455986,95.09728915821803z" style="fill:rgb(83,212,212)"/><path d="M178.10157095375496,26.322929308631977L141.25754334421052,2.8993436513105397L163.6438023807284,61.792955087481175z" style="fill:rgb(235,117,193)"/><path d="M-137.5904266228804,98.93746078129699L-68.51813120183516,164.4821125854094L-104.31523912361813,112.55155892615421z" style="fill:rgb(57,36,182)"/><path d="M109.7776385722372,-136.11878726641305L113.5962743718087,38.36610856649076L141.25754334421052,2.8993436513105397zM43.05648700727879,-147.44577253275526L31.203031166455986,95.09728915821803L75.89272921450281,70.08520914102346zM78.32758249792495,-145.34438318052568L75.89272921450281,70.08520914102346L113.5962743718087,38.36610856649076z" style="fill:rgb(83,212,212)"/><path d="M-62.963714960818024,116.9534534150318L-68.51813120183516,164.4821125854094L-28.74095550392952,169.7758317513498z" style="fill:rgb(83,32,199)"/><path d="M141.25754334421052,2.8993436513105397L178.10157095375496,26.322929308631977L157.12218771931083,-33.17753836114527z" style="fill:rgb(235,117,193)"/><path d="M163.6438023807284,61.792955087481175L113.5962743718087,38.36610856649076L137.98014002677527,96.26763691281731z" style="fill:rgb(219,93,208)"/><path d="M-68.51813120183516,164.4821125854094L-62.963714960818024,116.9534534150318L-104.31523912361813,112.55155892615421z" style="fill:rgb(83,32,199)"/><path d="M-16.50155676153102,111.12558269890064L-28.74095550392952,169.7758317513498L15.544534540631274,165.08538808217904z" style="fill:rgb(112,34,213)"/><path d="M137.98014002677527,96.26763691281731L75.89272921450281,70.08520914102346L102.72344518397531,126.72731506528781z" style="fill:rgb(197,72,218)"/><path d="M113.5962743718087,38.36610856649076L163.6438023807284,61.792955087481175L141.25754334421052,2.8993436513105397z" style="fill:rgb(219,93,208)"/><path d="M31.203031166455986,95.09728915821803L15.544534540631274,165.08538808217904L60.687926576934316,150.37187405709267z" style="fill:rgb(142,41,220)"/><path d="M75.89272921450281,70.08520914102346L60.687926576934316,150.37187405709267L102.72344518397531,126.72731506528781z" style="fill:rgb(171,55,222)"/><path d="M-28.74095550392952,169.7758317513498L-16.50155676153102,111.12558269890064L-62.963714960818024,116.9534534150318z" style="fill:rgb(112,34,213)"/><path d="M75.89272921450281,70.08520914102346L137.98014002677527,96.26763691281731L113.5962743718087,38.36610856649076z" style="fill:rgb(197,72,218)"/><path d="M15.544534540631274,165.08538808217904L31.203031166455986,95.09728915821803L-16.50155676153102,111.12558269890064z" style="fill:rgb(142,41,220)"/><path d="M60.687926576934316,150.37187405709267L75.89272921450281,70.08520914102346L31.203031166455986,95.09728915821803z" style="fill:rgb(171,55,222)"/></svg>
